<?xml version="1.0" encoding="utf-8"?>
<!-- Generator: Adobe Illustrator 27.7.0, SVG Export Plug-In . SVG Version: 6.00 Build 0)  -->
<svg version="1.1" xmlns="http://www.w3.org/2000/svg" xmlns:xlink="http://www.w3.org/1999/xlink" x="0px" y="0px"
	 viewBox="0 0 792 612" style="enable-background:new 0 0 792 612;" xml:space="preserve">
<style type="text/css">
	.st0{fill:none;}
	.st1{fill:#675F84;}
	.st2{fill:#CECAA8;}
	.st3{fill:none;stroke:#999999;stroke-miterlimit:10;}
</style>
<g id="Layer_1_copy">
	<g>
		<path class="st0" d="M556.27,251.99"/>
		<path class="st1" d="M244.14,181.29"/>
		<path class="st1" d="M549.03,181.29"/>
		<path class="st2" d="M396,155.78c89.96,0,155.98,0.54,177.24,0.11c3.83-0.08,16.4-0.4,28.26,6.94c3.2,1.98,9.97,6.3,14.09,14.98
			c1.32,2.79,2.09,5.95,2.09,5.95c0.39,1.47,0.59,2.6,0.65,2.96c0.58,3.3,0.53,5.79,0.51,6.33c-0.01,0.51-0.07,2.04-0.38,4.01
			c-0.14,0.89-0.39,2.39-0.92,4.03c-0.59,1.82-1.41,3.18-3.05,5.92c-2.01,3.35-3.34,4.89-3.96,5.57c-0.6,0.66-1.19,1.24-1.19,1.24
			c-1.03,1.02-1.95,1.83-2.66,2.41c0,0-1.03,0.88-1.99,1.59c-0.3,0.22-4.32,3.16-8.8,4.74c-0.98,0.34-4.01,1.3-8.11,1.52
			c-1.7,0.09-5.44,0.26-9.87-1.04c-8.33-2.43-13.02-8.3-14.67-10.3c-2.02-2.45-3.53-5.11-4.52-7.93c-0.61-1.72-2.33-6.56-1.24-12.18
			c0.52-2.66,1.38-4.03,1.76-4.59c1.5-2.19,3.58-3.35,3.8-3.47c1.67-0.91,3.56-1.35,4.85-2.69c0.22-0.23,0.6-0.67,0.75-1.32
			c0.06-0.26,0.22-0.97-0.21-1.64c-0.49-0.77-1.38-0.87-1.51-0.89c-56.98,0-113.96,0-170.94,0C396,170.62,396,163.2,396,155.78z"/>
		<path class="st2" d="M566.32,188.14"/>
		<path class="st2" d="M396,114.05c3.21-0.19,6.43-0.53,9.64-0.54c38.36-0.06,76.71-0.07,115.07-0.06c3.9,0,7.84-0.11,11.25,2.42
			c4.89,3.62,6.08,7.47,4.1,13.63c-1.59,4.94-5.08,7.49-10.74,7.49c-41.25,0.03-82.51,0.02-123.76,0.02c-1.85,0-3.71,0-5.56,0
			C396,129.35,396,121.7,396,114.05z"/>
		<path class="st2" d="M396,72.33c21.29,0,42.59-0.02,63.88,0.01c5.26,0.01,9.91,3.48,11.53,8.43c1.57,4.79,0.14,10.01-4.13,12.95
			c-1.88,1.3-4.45,2.21-6.71,2.23C439.04,96.09,417.52,96,396,95.97C396,88.09,396,80.21,396,72.33z"/>
		<path class="st1" d="M549.03,181.29"/>
		<path class="st2" d="M526.86,478.33c-7.63-6.8-11.17-10.45-14.71-14.08c-9.47-9.68-13.86-21.7-15.23-34.92
			c-0.55-5.39-0.73-10.83-0.74-16.25c-0.02-45.42,0.11-90.84,0.02-136.27c-0.02-12.57-9.14-25.93-22.31-30.05
			c-9.84-3.09-19.53-3.71-28.61,1.64c-11.65,6.87-18.74,16.72-18.73,30.97c0.08,78.45-0.09,156.89,0.14,235.34
			c0.02,6.48-0.84,12.56-2.53,18.31c-3.12,10.61-9.01,18.52-12.34,23.07c-4.18,5.74-8.63,10.44-10.16,12.05
			c-2.23,2.34-4.19,4.23-5.67,5.6c0-123.56,0-247.12,0-370.68c42.06,0,84.13,0.1,126.19-0.08c9.25-0.04,14.84,6.24,15.63,14.95
			c0.12,1.38,0.05,2.78,0.05,4.17c0,11.45,2.31,99.19,0.01,261.76c-0.01,0.73-0.04,3.01-0.05,3.73"/>
		<path class="st2" d="M396,155.78c59.08,0,118.16-0.1,177.24,0.11c0.49,0,3.73-0.08,8.24,0.1c2.4,0.1,4.2,0.45,5.15,0.61
			c1.76,0.29,4.07,0.68,6.98,1.63c1.69,0.55,2.97,1.1,3.59,1.38c0.86,0.38,2.01,0.93,3.32,1.66c1.59,0.89,2.73,1.68,3.13,1.96
			c1.29,0.9,2.21,1.67,2.92,2.27c0.85,0.72,1.41,1.23,1.62,1.43c0.67,0.63,1.16,1.14,1.38,1.37c0.42,0.44,1.18,1.24,2.05,2.36
			c1.05,1.34,1.71,2.44,1.89,2.73c0.14,0.23,0.72,1.23,1.36,2.64c0,0,0,0,0,0c0,0,0,0,0,0c0.24,0.5,0.52,1.12,0.82,1.84
			c0.17,0.41,0.46,1.1,0.8,2.02c0.45,1.21,0.73,2.15,0.81,2.42c0.14,0.46,0.42,1.44,0.7,2.73c0.13,0.6,0.31,1.43,0.47,2.51
			c0.3,2.11,0.31,3.77,0.31,4.76c0,0.38,0,0.98-0.04,1.78c-0.05,0.88-0.14,1.97-0.33,3.19c-0.31,1.99-0.75,3.46-0.86,3.82
			c-0.12,0.4-0.69,2.2-1.78,4.43c-2.27,4.64-5.06,7.56-5.89,8.4c-2.95,2.97-5.87,5.19-8.55,6.33c0,0,0,0,0,0
			c-1.04,0.55-3.02,1.52-5.43,2.29c-2.43,0.78-9.51,3.04-17.98,0.49c-5.45-1.64-10.37-5.08-14.67-10.3
			c-2.02-2.45-3.53-5.11-4.52-7.93c-0.61-1.72-2.33-6.56-1.24-12.18c0.52-2.66,1.38-4.03,1.76-4.59c1.5-2.19,3.58-3.35,3.8-3.47
			c1.67-0.91,3.56-1.35,4.85-2.69c0.22-0.23,0.6-0.67,0.75-1.32c0.06-0.26,0.22-0.97-0.21-1.64c-0.49-0.77-1.38-0.87-1.51-0.89
			c-56.98,0-113.96,0-170.94,0C396,170.62,396,163.2,396,155.78z"/>
		<path class="st2" d="M566.32,188.14"/>
		<path class="st2" d="M396,113.58c1.5,0,5.1,0,9.64-0.06c38.35-0.47,76.71-0.07,115.07-0.06c3.9,0,7.84-0.11,11.25,2.42
			c4.89,3.62,6.08,7.47,4.1,13.63c-1.59,4.94-5.08,7.49-10.74,7.49c-41.25,0.03-127.47,0.02-129.32,0.02
			C396,129.2,396,121.39,396,113.58z"/>
		<path class="st2" d="M396,72.33c21.29,0,42.59-0.02,63.88,0.01c5.26,0.01,9.91,3.48,11.53,8.43c1.57,4.79,0.14,10.01-4.13,12.95
			c-1.88,1.3-4.45,2.21-6.71,2.23C439.04,96.09,417.52,96,396,95.97C396,88.09,396,80.21,396,72.33z"/>
		<path class="st3" d="M397.17,203.07"/>
		<path class="st2" d="M613.51,173.39"/>
		<path class="st2" d="M623.42,189.06"/>
		<path class="st2" d="M628.78,176.05"/>
		<path class="st1" d="M242.97,181.29"/>
		<path class="st2" d="M396,155.78c-89.96,0-155.98,0.54-177.24,0.11c-3.83-0.08-16.4-0.4-28.26,6.94c-3.2,1.98-9.97,6.3-14.1,14.98
			c-1.32,2.79-2.09,5.95-2.09,5.95c-0.39,1.47-0.59,2.6-0.65,2.96c-0.58,3.3-0.53,5.79-0.51,6.33c0.01,0.51,0.07,2.04,0.38,4.01
			c0.14,0.89,0.39,2.39,0.92,4.03c0.59,1.82,1.41,3.18,3.05,5.92c2.01,3.35,3.34,4.89,3.96,5.57c0.6,0.66,1.19,1.24,1.19,1.24
			c1.03,1.02,1.95,1.83,2.66,2.41c0,0,1.03,0.88,1.99,1.59c0.3,0.22,4.32,3.16,8.8,4.74c0.98,0.34,4.01,1.3,8.11,1.52
			c1.7,0.09,5.44,0.26,9.87-1.04c8.33-2.43,13.02-8.3,14.67-10.3c2.02-2.45,3.53-5.11,4.52-7.93c0.61-1.72,2.33-6.56,1.24-12.18
			c-0.52-2.66-1.38-4.03-1.76-4.59c-1.5-2.19-3.58-3.35-3.8-3.47c-1.67-0.91-3.56-1.35-4.85-2.69c-0.22-0.23-0.6-0.67-0.75-1.32
			c-0.06-0.26-0.22-0.97,0.21-1.64c0.49-0.77,1.38-0.87,1.51-0.89c56.98,0,113.96,0,170.94,0C396,170.62,396,163.2,396,155.78z"/>
		<path class="st2" d="M225.68,188.14"/>
		<path class="st2" d="M396,114.05c-3.21-0.19-6.43-0.53-9.64-0.54c-38.36-0.06-76.71-0.07-115.07-0.06c-3.9,0-7.84-0.11-11.25,2.42
			c-4.89,3.62-6.08,7.47-4.1,13.63c1.59,4.94,5.08,7.49,10.74,7.49c41.25,0.03,82.51,0.02,123.76,0.02c1.85,0,3.71,0,5.56,0
			C396,129.35,396,121.7,396,114.05z"/>
		<path class="st2" d="M396,72.33c-21.29,0-42.59-0.02-63.88,0.01c-5.26,0.01-9.91,3.48-11.53,8.43
			c-1.57,4.79-0.14,10.01,4.13,12.95c1.88,1.3,4.45,2.21,6.71,2.23c21.52,0.14,43.04,0.05,64.56,0.02C396,88.09,396,80.21,396,72.33
			z"/>
		<path class="st1" d="M242.97,181.29"/>
		<path class="st2" d="M265.13,478.32c7.63-6.8,11.17-10.45,14.71-14.08c9.47-9.68,13.86-21.7,15.23-34.92
			c0.55-5.39,0.73-10.83,0.74-16.25c0.02-45.42-0.11-90.84-0.02-136.27c0.02-12.57,9.14-25.93,22.31-30.05
			c9.84-3.09,19.53-3.71,28.61,1.64c11.65,6.87,18.74,16.72,18.73,30.97c-0.08,78.45,0.09,156.89-0.14,235.34
			c-0.02,6.48,0.84,12.56,2.53,18.31c3.12,10.61,9.01,18.52,12.34,23.07c4.18,5.74,8.63,10.44,10.16,12.05
			c2.23,2.34,4.19,4.23,5.67,5.6c0-123.56,0-247.12,0-370.68c-42.06,0-84.13,0.1-126.19-0.08c-9.25-0.04-14.84,6.24-15.63,14.95
			c-0.12,1.38-0.05,2.78-0.05,4.17c0,11.45-2.31,99.19-0.01,261.76c0.01,0.73,0.04,3.01,0.05,3.73"/>
		<path class="st2" d="M396,155.78c-59.08,0-118.16-0.1-177.24,0.11c-0.49,0-3.73-0.08-8.24,0.1c-2.4,0.1-4.2,0.45-5.15,0.61
			c-1.76,0.29-4.07,0.68-6.98,1.63c-1.69,0.55-2.97,1.1-3.59,1.38c-0.86,0.38-2.01,0.93-3.32,1.66c-1.59,0.89-2.73,1.68-3.13,1.96
			c-1.29,0.9-2.21,1.67-2.92,2.27c-0.85,0.72-1.41,1.23-1.62,1.43c-0.67,0.63-1.16,1.14-1.38,1.37c-0.42,0.44-1.18,1.24-2.05,2.36
			c-1.05,1.34-1.71,2.44-1.89,2.73c-0.14,0.23-0.72,1.23-1.36,2.64c0,0,0,0,0,0c0,0,0,0,0,0c-0.24,0.5-0.52,1.12-0.82,1.84
			c-0.17,0.41-0.46,1.1-0.8,2.02c-0.45,1.21-0.73,2.15-0.81,2.42c-0.14,0.46-0.42,1.44-0.7,2.73c-0.13,0.6-0.31,1.43-0.47,2.51
			c-0.3,2.11-0.31,3.77-0.31,4.76c0,0.38,0,0.98,0.04,1.78c0.05,0.88,0.14,1.97,0.33,3.19c0.31,1.99,0.75,3.46,0.86,3.82
			c0.12,0.4,0.69,2.2,1.78,4.43c2.27,4.64,5.06,7.56,5.89,8.4c2.95,2.97,5.87,5.19,8.55,6.33c0,0,0,0,0,0
			c1.04,0.55,3.02,1.52,5.43,2.29c2.43,0.78,9.51,3.04,17.98,0.49c5.45-1.64,10.37-5.08,14.67-10.3c2.02-2.45,3.53-5.11,4.52-7.93
			c0.61-1.72,2.33-6.56,1.24-12.18c-0.52-2.66-1.38-4.03-1.76-4.59c-1.5-2.19-3.58-3.35-3.8-3.47c-1.67-0.91-3.56-1.35-4.85-2.69
			c-0.22-0.23-0.6-0.67-0.75-1.32c-0.06-0.26-0.22-0.97,0.21-1.64c0.49-0.77,1.38-0.87,1.51-0.89c56.98,0,113.96,0,170.94,0
			C396,170.62,396,163.2,396,155.78z"/>
		<path class="st2" d="M225.68,188.14"/>
		<path class="st2" d="M396,113.58c-1.5,0-5.1,0-9.64-0.06c-38.35-0.47-76.71-0.07-115.07-0.06c-3.9,0-7.84-0.11-11.25,2.42
			c-4.89,3.62-6.08,7.47-4.1,13.63c1.59,4.94,5.08,7.49,10.74,7.49c41.25,0.03,127.47,0.02,129.32,0.02
			C396,129.19,396,121.39,396,113.58z"/>
		<path class="st2" d="M396,72.33c-21.29,0-42.59-0.02-63.88,0.01c-5.26,0.01-9.91,3.48-11.53,8.43
			c-1.57,4.79-0.14,10.01,4.13,12.95c1.88,1.3,4.45,2.21,6.71,2.23c21.52,0.14,43.04,0.05,64.56,0.02C396,88.09,396,80.21,396,72.33
			z"/>
		<path class="st3" d="M394.83,203.07"/>
		<path class="st2" d="M178.49,173.39"/>
		<path class="st2" d="M168.58,189.06"/>
		<path class="st2" d="M163.22,176.05"/>
		<path class="st3" d="M394.83,203.07"/>
		<path class="st2" d="M168.58,189.06"/>
		<path class="st2" d="M163.22,176.05"/>
		<rect x="388.03" y="203.13" class="st2" width="16.21" height="361.38"/>
		<rect x="394.45" y="564.51" class="st2" width="3.05" height="7.52"/>
		<rect x="395.67" y="572.03" class="st2" width="0.61" height="1.42"/>
		<rect x="395.92" y="573.45" class="st2" width="0.16" height="0.22"/>
		<rect x="395.98" y="573.66" class="st2" width="0.05" height="0.06"/>
		<rect x="394.92" y="155.78" class="st2" width="3.35" height="22.22"/>
		<rect x="394.88" y="113.57" class="st2" width="4.75" height="23.43"/>
		<rect x="394.55" y="72.33" class="st2" width="3.24" height="23.65"/>
	</g>
</g>
<g id="Layer_1_copy_2">
</g>
</svg>
